# xmcd
#
# Track frame offsets:
#	150
#	11983
#	34478
#	55805
#	75281
#	91517
#	100248
#	115161
#	130722
#	146937
#	161663
#	185425
#	196516
#	211998
#	227789
#	243842
#	261492
#	287155
#
# Disc length: 4240 seconds
#
# Revision: 0
# Processed by: cddbd v1.5.2PL0 Copyright (c) Steve Scherf et al.
# Submitted via: dBpowerAMP V4.0
#
DISCID=f6108e12
DTITLE=B B King - King of Blues
DYEAR=2002
DGENRE=Blues
TTITLE0=Payin' The Cost To Be The Boss 
TTITLE1=The Thrill Is Gone 
TTITLE2=Everyday I Have The Blues 
TTITLE3=Sweet Sixteen
TTITLE4=The Other Night Blues 
TTITLE5=A New Way Of Driving
TTITLE6=B B Boogie
TTITLE7=Walkin' And Cryin' 
TTITLE8=It'S My Own Fault 
TTITLE9=Mr Pawnbroker
TTITLE10=You'Ve Done Lost Your Good Thing Now
TTITLE11=Catfish Blues 
TTITLE12=How Blue Can You Get
TTITLE13=The Letter
TTITLE14=Long Nights
TTITLE15=That Evil Child 
TTITLE16=Guess Who
TTITLE17=Outside Help
EXTD=
EXTT0=
EXTT1=
EXTT2=
EXTT3=
EXTT4=
EXTT5=
EXTT6=
EXTT7=
EXTT8=
EXTT9=
EXTT10=
EXTT11=
EXTT12=
EXTT13=
EXTT14=
EXTT15=
EXTT16=
EXTT17=
PLAYORDER=
